STARTFONT 2.1
COMMENT This font image translated from Metafont
COMMENT Input file was ``aplox''
COMMENT DPI was ``300'', usermag ``1000'', blackness ``3''
COMMENT shrink was 1
FONT aplox.300
SIZE 10 300 300
FONTBOUNDINGBOX 25 36 0 -6
STARTPROPERTIES 3
FONT_ASCENT 30
FONT_DESCENT 8
COPYRIGHT "Public Domain"
ENDPROPERTIES
CHARS 154
STARTCHAR C032
ENCODING 32
SWIDTH 672 0
DWIDTH 28 0
BBX 3 30 12 -3
BITMAP
0000
0000
0000
0000
0000
0000
0000
0000
0000
0000
0000
0000
0000
0000
0000
0000
0000
0000
0000
0000
0000
0000
0000
0000
0000
0000
0000
0000
0000
0000
ENDCHAR
STARTCHAR C033
ENCODING 33
SWIDTH 672 0
DWIDTH 28 0
BBX 3 30 12 -3
BITMAP
e0
e0
e0
e0
e0
e0
e0
e0
e0
e0
e0
e0
e0
e0
e0
e0
e0
e0
e0
c0
c0
00
00
00
c0
c0
c0
c0
c0
c0
ENDCHAR
STARTCHAR C034
ENCODING 34
SWIDTH 672 0
DWIDTH 28 0
BBX 12 9 6 18
BITMAP
e070
e070
e070
e070
e070
e070
e070
e070
e070
ENDCHAR
STARTCHAR C035
ENCODING 35
SWIDTH 672 0
DWIDTH 28 0
BBX 18 21 3 0
BITMAP
1c0e00
1c0e00
1c0e00
1c0e00
1c0e00
1c0e00
ffffc0
ffffc0
ffffc0
1c0e00
1c0e00
1c0e00
ffffc0
ffffc0
ffffc0
1c0e00
1c0e00
1c0e00
1c0e00
1c0e00
1c0e00
ENDCHAR
STARTCHAR C036
ENCODING 36
SWIDTH 672 0
DWIDTH 28 0
BBX 15 21 3 0
BITMAP
0380
0380
0380
07f0
3ff8
7ffc
738e
4380
6380
7fc0
3ff0
0ff8
079c
0784
838c
fffc
7ff8
3fe0
0380
0380
0380
ENDCHAR
STARTCHAR C037
ENCODING 37
SWIDTH 672 0
DWIDTH 28 0
BBX 18 27 3 -3
BITMAP
000040
1c01c0
3e03c0
770380
630780
630f80
7e1f00
3c1e00
003e00
007c00
007800
00f000
01f000
01e000
03c000
07c000
078000
0f8000
0f0000
1e0e00
3e1f00
3c3b80
783180
783380
703f00
e01e00
c00000
ENDCHAR
STARTCHAR C038
ENCODING 38
SWIDTH 672 0
DWIDTH 28 0
BBX 18 21 3 -3
BITMAP
040000
1f8000
3fc000
70e000
606000
e06000
e06000
606000
70e000
3fc000
3fc000
1f81c0
79e180
707180
e03f80
e01f00
f01e00
781e00
3ff7c0
1fe3c0
0780c0
ENDCHAR
STARTCHAR C039
ENCODING 39
SWIDTH 672 0
DWIDTH 28 0
BBX 6 12 9 12
BITMAP
fc
fc
fc
fc
fc
fc
fc
fc
fc
fc
fc
fc
ENDCHAR
STARTCHAR C040
ENCODING 40
SWIDTH 672 0
DWIDTH 28 0
BBX 9 27 9 -3
BITMAP
0080
0300
0700
0f00
1e00
1c00
3c00
3800
7800
7000
7000
e000
e000
e000
e000
e000
f000
7000
7000
3800
3c00
1c00
1e00
0e00
0700
0700
0180
ENDCHAR
STARTCHAR C041
ENCODING 41
SWIDTH 672 0
DWIDTH 28 0
BBX 9 27 6 -3
BITMAP
8000
e000
7000
7800
3800
3c00
1e00
0e00
0f00
0700
0700
0700
0380
0380
0380
0780
0780
0700
0f00
0e00
1e00
1c00
3c00
7800
7000
e000
c000
ENDCHAR
STARTCHAR C042
ENCODING 42
SWIDTH 672 0
DWIDTH 28 0
BBX 16 15 4 3
BITMAP
0380
0380
0380
0380
0380
e38f
7ffe
3ff8
0fe0
07c0
07c0
0ee0
0c60
1830
1010
ENDCHAR
STARTCHAR C043
ENCODING 43
SWIDTH 672 0
DWIDTH 28 0
BBX 15 15 3 3
BITMAP
0380
0380
0380
0380
0380
0380
fffe
fffe
fffe
0380
0380
0380
0380
0380
0380
ENDCHAR
STARTCHAR C044
ENCODING 44
SWIDTH 672 0
DWIDTH 28 0
BBX 12 9 3 -6
BITMAP
1ff0
1fe0
0fe0
0f80
3f00
3e00
7800
e000
8000
ENDCHAR
STARTCHAR C045
ENCODING 45
SWIDTH 672 0
DWIDTH 28 0
BBX 18 3 3 9
BITMAP
ffffc0
ffffc0
ffffc0
ENDCHAR
STARTCHAR C046
ENCODING 46
SWIDTH 672 0
DWIDTH 28 0
BBX 6 6 9 -3
BITMAP
fc
fc
fc
fc
fc
fc
ENDCHAR
STARTCHAR C047
ENCODING 47
SWIDTH 672 0
DWIDTH 28 0
BBX 21 27 0 -3
BITMAP
000008
000070
000070
0000f0
0001e0
0001e0
0003c0
000780
000780
000f00
001e00
003c00
003c00
007800
00f000
01e000
03c000
078000
070000
0f0000
1e0000
3c0000
3c0000
780000
700000
f00000
c00000
ENDCHAR
STARTCHAR C048
ENCODING 48
SWIDTH 672 0
DWIDTH 28 0
BBX 18 26 3 -3
BITMAP
03f000
07f800
0f3c00
3c0e00
380700
700380
e00380
e00180
e001c0
e001c0
e001c0
e001c0
e001c0
e001c0
e001c0
e001c0
e001c0
e00180
e00380
700380
300700
380e00
1e1c00
0ff800
07f000
00c000
ENDCHAR
STARTCHAR C049
ENCODING 49
SWIDTH 672 0
DWIDTH 28 0
BBX 15 27 3 -3
BITMAP
0080
0380
0f80
1f80
3f80
3f80
7b80
7380
c380
0380
0380
0380
0380
0380
0380
0380
0380
0380
0380
0380
0380
0380
0380
0380
fffe
fffe
fffe
ENDCHAR
STARTCHAR C050
ENCODING 50
SWIDTH 672 0
DWIDTH 28 0
BBX 18 27 3 -3
BITMAP
03f000
1ffe00
3fff00
780f80
700380
e00180
e001c0
e001c0
e001c0
0001c0
000380
000380
000700
001e00
003c00
00f800
03f000
07c000
1f8000
3e0000
780000
700000
f00000
e00000
ffffc0
ffffc0
ffffc0
ENDCHAR
STARTCHAR C051
ENCODING 51
SWIDTH 672 0
DWIDTH 28 0
BBX 18 27 3 -3
BITMAP
ffffc0
ffffc0
ffffc0
000180
000380
000780
000f00
001e00
003c00
007800
00f800
01f000
03f800
03fe00
03ff00
000f80
000780
0003c0
0003c0
0001c0
0003c0
c003c0
f00780
7c0f80
7fff00
3ffe00
0ffc00
ENDCHAR
STARTCHAR C052
ENCODING 52
SWIDTH 672 0
DWIDTH 28 0
BBX 18 27 3 -3
BITMAP
000200
000e00
003e00
007e00
00fe00
01ee00
03ce00
070e00
0e0e00
1c0e00
180e00
380e00
700e00
e00e00
e00e00
e00e00
e00e00
e00e00
ffffc0
ffffc0
ffffc0
000e00
000e00
000e00
000e00
000e00
000e00
ENDCHAR
STARTCHAR C053
ENCODING 53
SWIDTH 672 0
DWIDTH 28 0
BBX 18 27 3 -3
BITMAP
ffffc0
ffffc0
ffffc0
e00000
e00000
e00000
e00000
e00000
e00000
e0f800
e3fe00
efff00
ff9f80
fe0780
f803c0
0003c0
0001c0
0001c0
0001c0
0001c0
0003c0
800380
f00780
7c0f80
3fff00
1ffe00
0ff800
ENDCHAR
STARTCHAR C054
ENCODING 54
SWIDTH 672 0
DWIDTH 28 0
BBX 18 27 3 -3
BITMAP
00fe00
03fe00
07fe00
1f8000
1e0000
3c0000
780000
f00000
f00000
e00000
e00000
e00000
e0f800
e3fe00
efff00
ff0780
fc0380
f00180
f001c0
e001c0
e001c0
e003c0
e00380
780780
3fff00
1ffe00
0ff800
ENDCHAR
STARTCHAR C055
ENCODING 55
SWIDTH 672 0
DWIDTH 28 0
BBX 18 27 3 -3
BITMAP
ffffc0
ffffc0
ffffc0
0001c0
0003c0
000780
000780
000f00
001e00
003c00
007800
007800
00f000
00e000
01e000
01c000
03c000
038000
078000
070000
070000
0e0000
0e0000
0e0000
1c0000
1c0000
1c0000
ENDCHAR
STARTCHAR C056
ENCODING 56
SWIDTH 672 0
DWIDTH 28 0
BBX 18 27 3 -3
BITMAP
03e000
1ffe00
3fff00
7e0f80
f00380
e00380
e001c0
e001c0
e001c0
e001c0
e00380
700780
3ffe00
1ffe00
1ffe00
780700
700380
e001c0
e001c0
e001c0
e001c0
e00380
f00380
780780
7fff00
1ffe00
07f800
ENDCHAR
STARTCHAR C057
ENCODING 57
SWIDTH 672 0
DWIDTH 28 0
BBX 18 27 3 -3
BITMAP
07f000
1ffe00
3fff00
7c0f80
f00380
e00180
e001c0
e003c0
e003c0
e007c0
e00fc0
701fc0
3ffdc0
1ff9c0
0fe1c0
0001c0
0001c0
0001c0
000380
000380
000780
000f00
001e00
003c00
1ff800
1ff000
1fc000
ENDCHAR
STARTCHAR C058
ENCODING 58
SWIDTH 672 0
DWIDTH 28 0
BBX 6 21 9 -3
BITMAP
fc
fc
fc
fc
fc
fc
00
00
00
00
00
00
00
00
00
fc
fc
fc
fc
fc
fc
ENDCHAR
STARTCHAR C059
ENCODING 59
SWIDTH 672 0
DWIDTH 28 0
BBX 12 24 3 -6
BITMAP
03f0
03f0
03f0
03f0
03f0
03f0
0000
0000
0000
0000
0000
0000
0000
0000
03f0
03f0
03e0
03e0
0fc0
1f80
3e00
7800
6000
8000
ENDCHAR
STARTCHAR C060
ENCODING 60
SWIDTH 672 0
DWIDTH 28 0
BBX 14 27 7 -3
BITMAP
0004
0018
0038
00f0
01e0
03c0
0780
0f00
1e00
3c00
7800
7000
f000
e000
f000
f000
7800
3c00
1e00
0f00
0780
03c0
01e0
00f0
0078
0038
000c
ENDCHAR
STARTCHAR C061
ENCODING 61
SWIDTH 672 0
DWIDTH 28 0
BBX 18 12 3 3
BITMAP
ffffc0
ffffc0
ffffc0
000000
000000
000000
000000
000000
000000
ffffc0
ffffc0
ffffc0
ENDCHAR
STARTCHAR C062
ENCODING 62
SWIDTH 672 0
DWIDTH 28 0
BBX 15 27 3 -3
BITMAP
c000
e000
7000
3800
1c00
0c00
0600
0300
0180
00e0
0070
0078
003c
003e
003e
0038
0070
00e0
01c0
0380
0700
0e00
1c00
3800
7000
6000
8000
ENDCHAR
STARTCHAR C063
ENCODING 63
SWIDTH 672 0
DWIDTH 28 0
BBX 18 27 3 -3
BITMAP
03f000
1ffe00
3fff00
7e1f80
780780
f00380
e003c0
e001c0
e003c0
0003c0
000380
000780
000f00
001e00
001c00
003800
007800
007000
007000
007000
007000
000000
000000
000000
007000
007000
007000
ENDCHAR
STARTCHAR C064
ENCODING 64
SWIDTH 672 0
DWIDTH 28 0
BBX 18 27 3 -3
BITMAP
03f000
1ffe00
3fff00
7c0f80
700380
e00380
e001c0
e001c0
e001c0
e0c1c0
e3fdc0
e3fdc0
e7bdc0
e70dc0
e60dc0
e60dc0
e70fc0
e7ffc0
e3ffc0
e1e3c0
e041c0
f00000
f00000
7c0000
7fffc0
3fffc0
07fc00
ENDCHAR
STARTCHAR C065
ENCODING 65
SWIDTH 672 0
DWIDTH 28 0
BBX 18 26 3 -3
BITMAP
03f000
07f800
1e3c00
1c0e00
380700
700380
700380
e00380
e001c0
e001c0
e001c0
e001c0
e001c0
e001c0
ffffc0
ffffc0
ffffc0
e001c0
e001c0
e001c0
e001c0
e001c0
e001c0
e001c0
e001c0
e001c0
ENDCHAR
STARTCHAR C066
ENCODING 66
SWIDTH 672 0
DWIDTH 28 0
BBX 21 27 0 -3
BITMAP
ffff00
ffffc0
ffffe0
1c01f0
1c0070
1c0070
1c0038
1c0038
1c0038
1c0038
1c0070
1c00f0
1fffc0
1fffc0
1fffc0
1c00e0
1c0070
1c0078
1c0038
1c0038
1c0038
1c0030
1c0070
1c00f0
ffffe0
ffffc0
ffff00
ENDCHAR
STARTCHAR C067
ENCODING 67
SWIDTH 672 0
DWIDTH 28 0
BBX 18 27 3 -3
BITMAP
03f000
1ffe00
3fff00
7c0f80
700380
e001c0
e00000
e00000
e00000
e00000
e00000
e00000
e00000
e00000
e00000
e00000
e00000
e00000
e00000
e00000
e00000
e000c0
f00180
780780
3fff00
1ffe00
0ff800
ENDCHAR
STARTCHAR C068
ENCODING 68
SWIDTH 672 0
DWIDTH 28 0
BBX 21 27 0 -3
BITMAP
fffe00
ffffc0
ffffe0
1c01f0
1c0070
1c0070
1c0038
1c0038
1c0038
1c0038
1c0038
1c0038
1c0038
1c0038
1c0038
1c0038
1c0038
1c0038
1c0038
1c0038
1c0038
1c0038
1c0070
1c00f0
ffffe0
ffffc0
ffff00
ENDCHAR
STARTCHAR C069
ENCODING 69
SWIDTH 672 0
DWIDTH 28 0
BBX 18 27 3 -3
BITMAP
ffffc0
ffffc0
ffffc0
e00000
e00000
e00000
e00000
e00000
e00000
e00000
e00000
e00000
fff000
fff000
fff000
e00000
e00000
e00000
e00000
e00000
e00000
e00000
e00000
e00000
ffffc0
ffffc0
ffffc0
ENDCHAR
STARTCHAR C070
ENCODING 70
SWIDTH 672 0
DWIDTH 28 0
BBX 18 27 3 -3
BITMAP
ffffc0
ffffc0
ffffc0
e00000
e00000
e00000
e00000
e00000
e00000
e00000
e00000
e00000
fff000
fff000
fff000
e00000
e00000
e00000
e00000
e00000
e00000
e00000
e00000
e00000
e00000
e00000
e00000
ENDCHAR
STARTCHAR C071
ENCODING 71
SWIDTH 672 0
DWIDTH 28 0
BBX 18 27 3 -3
BITMAP
03f000
1ffe00
3fff00
7c0f80
f00380
e00080
e00000
e00000
e00000
e00000
e00000
e00000
e00000
e00000
e00000
e07fc0
e07fc0
e07fc0
e001c0
e003c0
e007c0
e00fc0
f01fc0
783fc0
3ffdc0
1ff1c0
0fc1c0
ENDCHAR
STARTCHAR C072
ENCODING 72
SWIDTH 672 0
DWIDTH 28 0
BBX 18 27 3 -3
BITMAP
e001c0
e001c0
e001c0
e001c0
e001c0
e001c0
e001c0
e001c0
e001c0
e001c0
e001c0
e001c0
ffffc0
ffffc0
ffffc0
e001c0
e001c0
e001c0
e001c0
e001c0
e001c0
e001c0
e001c0
e001c0
e001c0
e001c0
e001c0
ENDCHAR
STARTCHAR C073
ENCODING 73
SWIDTH 672 0
DWIDTH 28 0
BBX 15 27 3 -3
BITMAP
fffe
fffe
fffe
0380
0380
0380
0380
0380
0380
0380
0380
0380
0380
0380
0380
0380
0380
0380
0380
0380
0380
0380
0380
0380
fffe
fffe
fffe
ENDCHAR
STARTCHAR C074
ENCODING 74
SWIDTH 672 0
DWIDTH 28 0
BBX 18 27 3 -3
BITMAP
03ffc0
03ffc0
03ffc0
000e00
000e00
000e00
000e00
000e00
000e00
000e00
000e00
000e00
000e00
000e00
000e00
000e00
000e00
000e00
000e00
000e00
000e00
c01c00
f01c00
7c3c00
3ff800
1ff000
0fc000
ENDCHAR
STARTCHAR C075
ENCODING 75
SWIDTH 672 0
DWIDTH 28 0
BBX 18 27 3 -3
BITMAP
e00040
e00180
e00380
e00f00
e01e00
e03c00
e07800
e0f000
e1e000
e3c000
e78000
ef0000
ff0000
fe0000
ff0000
ff0000
e78000
e3c000
e1e000
e0f000
e07800
e03c00
e01e00
e00f00
e00780
e00380
e000c0
ENDCHAR
STARTCHAR C076
ENCODING 76
SWIDTH 672 0
DWIDTH 28 0
BBX 18 27 3 -3
BITMAP
e00000
e00000
e00000
e00000
e00000
e00000
e00000
e00000
e00000
e00000
e00000
e00000
e00000
e00000
e00000
e00000
e00000
e00000
e00000
e00000
e00000
e00000
e00000
e00000
ffffc0
ffffc0
ffffc0
ENDCHAR
STARTCHAR C077
ENCODING 77
SWIDTH 672 0
DWIDTH 28 0
BBX 21 27 0 -3
BITMAP
e00038
e00078
f00078
f00078
f000f8
f800f8
fc01f8
fc03f8
fe03f8
ef07b8
e70f38
e39e38
e1fc38
e1f838
e0f838
e07038
e07038
e06038
e00038
e00038
e00038
e00038
e00038
e00038
e00038
e00038
e00038
ENDCHAR
STARTCHAR C078
ENCODING 78
SWIDTH 672 0
DWIDTH 28 0
BBX 18 27 3 -3
BITMAP
e001c0
e001c0
f001c0
f001c0
f801c0
f801c0
fc01c0
fc01c0
fe01c0
ef01c0
e781c0
e3c1c0
e1e1c0
e0f1c0
e079c0
e03dc0
e01fc0
e00fc0
e00fc0
e007c0
e007c0
e003c0
e003c0
e001c0
e001c0
e001c0
e001c0
ENDCHAR
STARTCHAR C079
ENCODING 79
SWIDTH 672 0
DWIDTH 28 0
BBX 18 27 3 -3
BITMAP
03f000
1ffe00
3fff00
7c0780
f00380
e00380
e001c0
e001c0
e001c0
e001c0
e001c0
e001c0
e001c0
e001c0
e001c0
e001c0
e001c0
e001c0
e001c0
e001c0
e001c0
e00180
e00380
780780
3fff00
1ffe00
0ff800
ENDCHAR
STARTCHAR C080
ENCODING 80
SWIDTH 672 0
DWIDTH 28 0
BBX 18 27 3 -3
BITMAP
fff000
fffe00
ffff00
e00f80
e00380
e00380
e001c0
e001c0
e001c0
e001c0
e00380
e00780
ffff00
fffe00
fffc00
e00000
e00000
e00000
e00000
e00000
e00000
e00000
e00000
e00000
e00000
e00000
e00000
ENDCHAR
STARTCHAR C081
ENCODING 81
SWIDTH 672 0
DWIDTH 28 0
BBX 18 30 3 -6
BITMAP
07f000
1ffe00
3fff00
7c0f80
f00380
e00380
e001c0
e001c0
e001c0
e001c0
e001c0
e001c0
e001c0
e001c0
e001c0
e001c0
e001c0
e001c0
e201c0
e101c0
e1c1c0
e0e180
e07380
787b80
3fff00
1ffe00
0ffe00
000f80
000380
0000c0
ENDCHAR
STARTCHAR C082
ENCODING 82
SWIDTH 672 0
DWIDTH 28 0
BBX 18 27 3 -3
BITMAP
fff000
fffe00
ffff00
e00f80
e00380
e00380
e001c0
e001c0
e001c0
e001c0
e00380
e00780
ffff00
fffe00
fffc00
e38000
e3c000
e1c000
e1e000
e0f000
e07800
e03c00
e01e00
e00f00
e00780
e00380
e000c0
ENDCHAR
STARTCHAR C083
ENCODING 83
SWIDTH 672 0
DWIDTH 28 0
BBX 18 27 3 -3
BITMAP
03f000
1ffe00
3fff00
7e1f80
f80780
f00180
e00000
e00000
e00000
f00000
f00000
780000
7ff800
3ffe00
0fff00
000f80
000780
000380
0003c0
0001c0
0003c0
8003c0
f00780
7c0f80
3fff00
1ffe00
0ff800
ENDCHAR
STARTCHAR C084
ENCODING 84
SWIDTH 672 0
DWIDTH 28 0
BBX 21 27 0 -3
BITMAP
fffff8
fffff8
fffff8
007000
007000
007000
007000
007000
007000
007000
007000
007000
007000
007000
007000
007000
007000
007000
007000
007000
007000
007000
007000
007000
007000
007000
007000
ENDCHAR
STARTCHAR C085
ENCODING 85
SWIDTH 672 0
DWIDTH 28 0
BBX 18 27 3 -3
BITMAP
e001c0
e001c0
e001c0
e001c0
e001c0
e001c0
e001c0
e001c0
e001c0
e001c0
e001c0
e001c0
e001c0
e001c0
e001c0
e001c0
e001c0
e001c0
e001c0
e001c0
e003c0
f003c0
f00780
7c0f80
3fff00
1ffe00
0ff800
ENDCHAR
STARTCHAR C086
ENCODING 86
SWIDTH 672 0
DWIDTH 28 0
BBX 21 27 0 -3
BITMAP
c00008
e00018
e00038
e00070
700070
700070
7000e0
3800e0
3800e0
3801c0
1c01c0
1c01c0
1c0380
0e0380
0e0380
0e0700
060700
070600
030600
030e00
038e00
038c00
019c00
019800
00f800
007000
006000
ENDCHAR
STARTCHAR C087
ENCODING 87
SWIDTH 672 0
DWIDTH 28 0
BBX 21 27 0 -3
BITMAP
e00038
e00038
e00038
e00038
e00038
e00038
e00038
e00038
e00038
e00038
e00038
e00038
e07038
e07038
e07038
e07038
e07038
e07038
e0f038
e0f838
e1f838
e19c70
e38e70
7f0770
3e03e0
1c03c0
0c0180
ENDCHAR
STARTCHAR C088
ENCODING 88
SWIDTH 672 0
DWIDTH 28 0
BBX 21 27 0 -3
BITMAP
e00038
e00038
e00038
e00078
f00070
700070
3800e0
1c01c0
0e0380
070700
03de00
01fc00
01fc00
01f800
01f800
01fc00
03fe00
070f00
0e0380
1c01c0
3800e0
7000f0
700070
e00078
e00038
e00038
e00038
ENDCHAR
STARTCHAR C089
ENCODING 89
SWIDTH 672 0
DWIDTH 28 0
BBX 21 27 0 -3
BITMAP
e00038
e00038
e00038
e00078
f00070
700070
7800e0
3c01e0
1e03c0
0f0780
07df00
03fe00
01fc00
00f800
00f800
007000
007000
007000
007000
007000
007000
007000
007000
007000
007000
007000
007000
ENDCHAR
STARTCHAR C090
ENCODING 90
SWIDTH 672 0
DWIDTH 28 0
BBX 18 27 3 -3
BITMAP
ffffc0
ffffc0
ffffc0
0001c0
0003c0
000780
000f80
001f00
003e00
007c00
00f800
01f000
03e000
07c000
0f8000
1f0000
3e0000
7c0000
780000
f00000
f00000
e00000
e00000
e00000
ffffc0
ffffc0
ffffc0
ENDCHAR
STARTCHAR C091
ENCODING 91
SWIDTH 672 0
DWIDTH 28 0
BBX 12 27 6 -3
BITMAP
fff0
fff0
fff0
e000
e000
e000
e000
e000
e000
e000
e000
e000
e000
e000
e000
e000
e000
e000
e000
e000
e000
e000
e000
e000
fff0
fff0
fff0
ENDCHAR
STARTCHAR C092
ENCODING 92
SWIDTH 672 0
DWIDTH 28 0
BBX 21 27 0 -3
BITMAP
c00000
c00000
e00000
700000
700000
380000
3c0000
1e0000
0f0000
070000
038000
01c000
00e000
007000
007800
003c00
001e00
000f00
000f00
000780
0003c0
0001e0
0000f0
000070
000030
000018
000008
ENDCHAR
STARTCHAR C093
ENCODING 93
SWIDTH 672 0
DWIDTH 28 0
BBX 12 27 6 -3
BITMAP
fff0
fff0
fff0
0070
0070
0070
0070
0070
0070
0070
0070
0070
0070
0070
0070
0070
0070
0070
0070
0070
0070
0070
0070
0070
fff0
fff0
fff0
ENDCHAR
STARTCHAR C094
ENCODING 94
SWIDTH 672 0
DWIDTH 28 0
BBX 21 21 0 0
BITMAP
006000
007000
00f000
00d800
018c00
018c00
030600
030600
060700
060300
0c0380
0c0180
1c01c0
1800c0
3800e0
300060
700070
600070
e00030
c00030
800018
ENDCHAR
STARTCHAR C095
ENCODING 95
SWIDTH 672 0
DWIDTH 28 0
BBX 24 3 0 -6
BITMAP
ffffff
ffffff
ffffff
ENDCHAR
STARTCHAR C096
ENCODING 96
SWIDTH 672 0
DWIDTH 28 0
BBX 12 9 6 15
BITMAP
f800
fe00
ff00
ff80
3fc0
0fc0
03e0
00e0
0070
ENDCHAR
STARTCHAR C097
ENCODING 97
SWIDTH 672 0
DWIDTH 28 0
BBX 18 18 3 -3
BITMAP
1ff800
1ffe00
1fff00
001f80
000780
0003c0
07ffc0
1fffc0
7fffc0
7801c0
e003c0
e003c0
e007c0
e00fc0
783dc0
3ff9c0
1ff1c0
07c1c0
ENDCHAR
STARTCHAR C098
ENCODING 98
SWIDTH 672 0
DWIDTH 28 0
BBX 18 27 3 -3
BITMAP
e00000
e00000
e00000
e00000
e00000
e00000
e00000
e00000
e00000
e0f800
e3fe00
efff00
ff0780
fc0380
f00180
e001c0
e001c0
e001c0
e001c0
e001c0
e001c0
f00180
f80380
fe0780
efff00
e7fe00
e1f800
ENDCHAR
STARTCHAR C099
ENCODING 99
SWIDTH 672 0
DWIDTH 28 0
BBX 18 18 3 -3
BITMAP
07f000
1ffe00
3fff00
7c0f80
700380
e000c0
e00000
e00000
e00000
e00000
e00000
e00000
e00040
f00180
780780
7fff00
1ffe00
07f800
ENDCHAR
STARTCHAR C100
ENCODING 100
SWIDTH 672 0
DWIDTH 28 0
BBX 18 27 3 -3
BITMAP
0001c0
0001c0
0001c0
0001c0
0001c0
0001c0
0001c0
0001c0
0001c0
07c1c0
1ff1c0
3ff9c0
783dc0
f00fc0
e007c0
e003c0
e003c0
e001c0
e001c0
e001c0
e003c0
e007c0
e00fc0
703dc0
7ff9c0
3ff1c0
0fc1c0
ENDCHAR
STARTCHAR C101
ENCODING 101
SWIDTH 672 0
DWIDTH 28 0
BBX 18 18 3 -3
BITMAP
07f800
1ffe00
3fff00
780780
f00380
e00180
ffffc0
ffffc0
ffffc0
e00000
e00000
e00000
e00000
700000
780000
7ffe00
1ffc00
07f800
ENDCHAR
STARTCHAR C102
ENCODING 102
SWIDTH 672 0
DWIDTH 28 0
BBX 17 27 3 -3
BITMAP
00f000
03fe00
07ff00
0f8f80
1e0380
1c0080
1c0000
1c0000
1c0000
1c0000
1c0000
1c0000
fffe00
fffe00
fffe00
1c0000
1c0000
1c0000
1c0000
1c0000
1c0000
1c0000
1c0000
1c0000
1c0000
1c0000
1c0000
ENDCHAR
STARTCHAR C103
ENCODING 103
SWIDTH 672 0
DWIDTH 28 0
BBX 18 24 3 -9
BITMAP
07c040
1ff180
3ff380
783f00
f01f00
e00e00
e00e00
e01c00
783c00
3ff800
1ff000
1fc000
700000
e00000
f00000
3ff800
1ffe00
3fff00
700380
600180
700780
3fff00
1ffe00
07f800
ENDCHAR
STARTCHAR C104
ENCODING 104
SWIDTH 672 0
DWIDTH 28 0
BBX 18 27 3 -3
BITMAP
e00000
e00000
e00000
e00000
e00000
e00000
e00000
e00000
e00000
e0f800
e3fe00
efff00
ff8f80
fc0380
f803c0
f001c0
e001c0
e001c0
e001c0
e001c0
e001c0
e001c0
e001c0
e001c0
e001c0
e001c0
e001c0
ENDCHAR
STARTCHAR C105
ENCODING 105
SWIDTH 672 0
DWIDTH 28 0
BBX 15 24 3 -3
BITMAP
0380
0380
0380
0000
0000
0000
1f80
1f80
1f80
0380
0380
0380
0380
0380
0380
0380
0380
0380
0380
0380
0380
fffe
fffe
fffe
ENDCHAR
STARTCHAR C106
ENCODING 106
SWIDTH 672 0
DWIDTH 28 0
BBX 15 30 3 -9
BITMAP
000e
000e
000e
0000
0000
0000
007e
007e
007e
000e
000e
000e
000e
000e
000e
000e
000e
000e
000e
000e
000e
e00e
e00e
e00e
e01e
f01c
787c
7ff8
3ff8
0fe0
ENDCHAR
STARTCHAR C107
ENCODING 107
SWIDTH 672 0
DWIDTH 28 0
BBX 18 27 3 -3
BITMAP
e00000
e00000
e00000
e00000
e00000
e00000
e00000
e00000
e00000
e00200
e00c00
e03c00
e07800
e0f000
e3e000
ffc000
ff8000
ff8000
e3e000
e0f000
e07800
e03c00
e01e00
e00f00
e00780
e00380
e000c0
ENDCHAR
STARTCHAR C108
ENCODING 108
SWIDTH 672 0
DWIDTH 28 0
BBX 15 27 3 -3
BITMAP
1f80
1f80
1f80
0380
0380
0380
0380
0380
0380
0380
0380
0380
0380
0380
0380
0380
0380
0380
0380
0380
0380
0380
0380
0380
fffe
fffe
fffe
ENDCHAR
STARTCHAR C109
ENCODING 109
SWIDTH 672 0
DWIDTH 28 0
BBX 21 18 0 -3
BITMAP
fe0300
ff0fc0
ff8fe0
e3fff0
e0f870
e0f070
e07038
e07038
e07038
e07038
e07038
e07038
e07038
e07038
e07038
e00038
e00038
e00038
ENDCHAR
STARTCHAR C110
ENCODING 110
SWIDTH 672 0
DWIDTH 28 0
BBX 18 18 3 -3
BITMAP
e0f800
e3fe00
efff00
ff8f80
fc0380
f803c0
f001c0
e001c0
e001c0
e001c0
e001c0
e001c0
e001c0
e001c0
e001c0
e001c0
e001c0
e001c0
ENDCHAR
STARTCHAR C111
ENCODING 111
SWIDTH 672 0
DWIDTH 28 0
BBX 18 18 3 -3
BITMAP
07f000
1ffe00
3fff00
7c0780
f00380
e00380
e001c0
e001c0
e001c0
e001c0
e001c0
e001c0
e00180
600380
780780
3fff00
1ffe00
0ff800
ENDCHAR
STARTCHAR C112
ENCODING 112
SWIDTH 672 0
DWIDTH 28 0
BBX 18 24 3 -9
BITMAP
e0f800
e3fe00
efff00
ff0780
fc0380
f801c0
f001c0
e001c0
e001c0
f001c0
f80380
fe0780
efff00
e7fe00
e1f800
e00000
e00000
e00000
e00000
e00000
e00000
e00000
e00000
e00000
ENDCHAR
STARTCHAR C113
ENCODING 113
SWIDTH 672 0
DWIDTH 28 0
BBX 18 24 3 -9
BITMAP
07c1c0
1ff1c0
3ffdc0
783fc0
f00fc0
e003c0
e001c0
e001c0
e001c0
e003c0
f00fc0
783fc0
3ffdc0
1ff1c0
0fc1c0
0001c0
0001c0
0001c0
0001c0
0001c0
0001c0
0001c0
0001c0
0001c0
ENDCHAR
STARTCHAR C114
ENCODING 114
SWIDTH 672 0
DWIDTH 28 0
BBX 18 18 3 -3
BITMAP
c0f800
e3fe00
77ff00
7f0f80
3e0180
3c00c0
1c0000
1c0000
1c0000
1c0000
1c0000
1c0000
1c0000
1c0000
1c0000
1c0000
1c0000
1c0000
ENDCHAR
STARTCHAR C115
ENCODING 115
SWIDTH 672 0
DWIDTH 28 0
BBX 18 18 3 -3
BITMAP
07f000
1ffe00
3fff00
700f80
600380
6000c0
3c0000
3f8000
0fe000
03f800
00fe00
001f00
800380
e00180
780380
3fff00
1ffe00
07f800
ENDCHAR
STARTCHAR C116
ENCODING 116
SWIDTH 672 0
DWIDTH 28 0
BBX 18 24 3 -3
BITMAP
1c0000
1c0000
1c0000
1c0000
1c0000
1c0000
fffe00
fffe00
fffe00
1c0000
1c0000
1c0000
1c0000
1c0000
1c0000
1c0000
1c0000
1c0000
1c00c0
1e0180
0f0780
0fff00
07fe00
01f800
ENDCHAR
STARTCHAR C117
ENCODING 117
SWIDTH 672 0
DWIDTH 28 0
BBX 17 18 3 -3
BITMAP
e00e00
e00e00
e00e00
e00e00
e00e00
e00e00
e00e00
e00e00
e00e00
e00e00
e00e00
e00e00
e01e00
701f00
787f00
7ff380
3fe180
0fc080
ENDCHAR
STARTCHAR C118
ENCODING 118
SWIDTH 672 0
DWIDTH 28 0
BBX 15 17 3 -2
BITMAP
e00e
e00e
e00e
e00e
e00e
e00e
e01e
f01c
701c
7038
3838
3878
1c70
1c70
0ce0
07c0
0380
ENDCHAR
STARTCHAR C119
ENCODING 119
SWIDTH 672 0
DWIDTH 28 0
BBX 21 18 0 -3
BITMAP
e00038
e00038
e00038
e00038
e00038
e00038
e07038
e07038
e0f038
e0f838
e0f838
e1f838
e19c78
e38e70
770670
3e03e0
1c03c0
0c0180
ENDCHAR
STARTCHAR C120
ENCODING 120
SWIDTH 672 0
DWIDTH 28 0
BBX 18 18 3 -3
BITMAP
800040
600180
700300
380700
1c0e00
0e1c00
07f800
07f000
03f000
03f000
07f000
07f800
0e3c00
1c0e00
380700
700300
600180
800080
ENDCHAR
STARTCHAR C121
ENCODING 121
SWIDTH 672 0
DWIDTH 28 0
BBX 18 24 3 -9
BITMAP
e001c0
e001c0
e001c0
e001c0
e001c0
e001c0
e001c0
e001c0
e001c0
f007c0
f01fc0
787fc0
3ffdc0
1ff1c0
07c1c0
0001c0
0001c0
0003c0
c00380
e00780
780f80
3fff00
1ffe00
07f800
ENDCHAR
STARTCHAR C122
ENCODING 122
SWIDTH 672 0
DWIDTH 28 0
BBX 18 18 3 -3
BITMAP
ffffc0
ffff80
ffff80
000700
000e00
001c00
003800
007000
00e000
01c000
038000
070000
0e0000
1c0000
380000
7fffc0
7fffc0
ffffc0
ENDCHAR
STARTCHAR C123
ENCODING 123
SWIDTH 672 0
DWIDTH 28 0
BBX 15 27 3 -3
BITMAP
0070
03fc
07fe
0f80
1e00
1c00
1c00
1e00
0e00
0700
0300
0380
3e00
fc00
fc00
0e00
0300
0300
0e00
1e00
1e00
1e00
1e00
0f80
0ffe
07fc
01f8
ENDCHAR
STARTCHAR C124
ENCODING 124
SWIDTH 672 0
DWIDTH 28 0
BBX 3 33 9 -6
BITMAP
e0
e0
e0
e0
e0
e0
e0
e0
e0
e0
e0
e0
e0
e0
e0
00
00
00
e0
e0
e0
e0
e0
e0
e0
e0
e0
e0
e0
e0
e0
e0
e0
ENDCHAR
STARTCHAR C125
ENCODING 125
SWIDTH 672 0
DWIDTH 28 0
BBX 15 27 3 -3
BITMAP
0e00
7f80
ffc0
07e0
01e0
00f0
00f0
00f0
01e0
01c0
0380
0380
00f8
007e
007c
01c0
0380
0180
01e0
00e0
00f0
00f0
00f0
03e0
ffc0
7f80
3f00
ENDCHAR
STARTCHAR C126
ENCODING 126
SWIDTH 672 0
DWIDTH 28 0
BBX 15 7 3 7
BITMAP
1c00
3e06
7f0c
678c
e3dc
c1f8
0070
ENDCHAR
STARTCHAR C128
ENCODING 128
SWIDTH 672 0
DWIDTH 28 0
BBX 21 21 0 0
BITMAP
000038
000038
000038
000038
000038
000038
000038
000038
000038
fffff8
fffff8
fffff8
000038
000038
000038
000038
000038
000038
000038
000038
000038
ENDCHAR
STARTCHAR C129
ENCODING 129
SWIDTH 672 0
DWIDTH 28 0
BBX 21 21 0 0
BITMAP
e00000
e00000
e00000
e00000
e00000
e00000
e00000
e00000
e00000
fffff8
fffff8
fffff8
e00000
e00000
e00000
e00000
e00000
e00000
e00000
e00000
e00000
ENDCHAR
STARTCHAR C130
ENCODING 130
SWIDTH 672 0
DWIDTH 28 0
BBX 21 18 0 3
BITMAP
03fff8
1ffff8
3ffff8
7c0000
700000
f00000
e00000
e00000
e00000
e00000
e00000
e00000
e00000
f00000
780000
7ffff8
1ffff8
0ffff8
ENDCHAR
STARTCHAR C131
ENCODING 131
SWIDTH 672 0
DWIDTH 28 0
BBX 21 18 0 3
BITMAP
fffe00
ffffc0
ffffe0
0001f0
000070
000070
000038
000038
000038
000038
000038
000038
000070
000070
0000f0
ffffe0
ffffc0
ffff80
ENDCHAR
STARTCHAR C132
ENCODING 132
SWIDTH 672 0
DWIDTH 28 0
BBX 21 27 0 -3
BITMAP
fffff8
fffff8
fffff8
007000
007000
007000
007000
007000
007000
007000
007000
007000
007000
007000
007000
007000
007000
007000
007000
007000
007000
007000
007000
007000
fffff8
fffff8
fffff8
ENDCHAR
STARTCHAR C133
ENCODING 133
SWIDTH 672 0
DWIDTH 28 0
BBX 20 21 0 3
BITMAP
008000
007000
007800
003c00
001e00
000f00
000780
0003c0
0003e0
ffffe0
fffff0
fffff0
0001e0
0003c0
0007c0
000780
000f00
001e00
003c00
007000
00e000
ENDCHAR
STARTCHAR C134
ENCODING 134
SWIDTH 672 0
DWIDTH 28 0
BBX 24 30 0 -3
BITMAP
000001
000006
00000e
00001c
000038
000070
0000f0
0001e0
0007c0
fffff8
fffff8
fffff8
000f80
001e00
003800
007800
00f000
03e000
fffff8
fffff8
fffff8
07c000
0f0000
1e0000
1c0000
3c0000
780000
700000
e00000
800000
ENDCHAR
STARTCHAR C137
ENCODING 137
SWIDTH 672 0
DWIDTH 28 0
BBX 21 21 0 3
BITMAP
03fe00
1fffc0
3fffe0
7e07f0
f860f0
f060f0
e06078
e0f078
e3fc38
fffff8
e7ff38
e1f838
e1fc38
e3fc38
e78e78
fe03f8
7c01f0
7c01f0
3fffe0
1fffc0
0fff80
ENDCHAR
STARTCHAR C139
ENCODING 139
SWIDTH 672 0
DWIDTH 28 0
BBX 21 26 0 -2
BITMAP
007000
007000
007000
007000
007000
007000
007000
007000
007000
007000
007000
007000
007000
007000
007008
c07018
e07030
707070
3871e0
3c73c0
1f77c0
0fff80
07ff00
03fe00
01f800
007000
ENDCHAR
STARTCHAR C140
ENCODING 140
SWIDTH 672 0
DWIDTH 28 0
BBX 21 26 0 -3
BITMAP
006000
00f800
03fc00
07fe00
0fff00
1f7f80
1e73c0
3871e0
7070f0
607070
c07030
807008
007000
007000
007000
007000
007000
007000
007000
007000
007000
007000
007000
007000
007000
007000
ENDCHAR
STARTCHAR C141
ENCODING 141
SWIDTH 672 0
DWIDTH 28 0
BBX 15 33 3 -6
BITMAP
fffe
fffe
fffe
e000
e000
e000
e000
e000
e000
e000
e000
e000
e000
e000
e000
e000
e000
e000
e000
e000
e000
e000
e000
e000
e000
e000
e000
e000
e000
e000
e000
e000
e000
ENDCHAR
STARTCHAR C143
ENCODING 143
SWIDTH 672 0
DWIDTH 28 0
BBX 15 33 3 -6
BITMAP
e000
e000
e000
e000
e000
e000
e000
e000
e000
e000
e000
e000
e000
e000
e000
e000
e000
e000
e000
e000
e000
e000
e000
e000
e000
e000
e000
e000
e000
e000
fffe
fffe
fffe
ENDCHAR
STARTCHAR C144
ENCODING 144
SWIDTH 672 0
DWIDTH 28 0
BBX 20 20 1 3
BITMAP
00e000
01c000
078000
0f0000
1e0000
3c0000
3c0000
780000
fffff0
fffff0
fffff0
780000
7c0000
3c0000
1e0000
0f0000
078000
03c000
01e000
006000
ENDCHAR
STARTCHAR C145
ENCODING 145
SWIDTH 672 0
DWIDTH 28 0
BBX 21 24 0 0
BITMAP
002000
007000
00f000
00d800
018c00
018c00
030e00
070600
060700
0e0300
0c0380
1c01c0
1801c0
3800e0
7800e0
700070
f00070
f00078
e00078
e00038
e00038
fffff8
fffff8
fffff8
ENDCHAR
STARTCHAR C146
ENCODING 146
SWIDTH 672 0
DWIDTH 28 0
BBX 15 15 3 6
BITMAP
8002
e00c
701c
3838
1cf0
0fe0
0fe0
0fc0
0fc0
0fe0
1ff0
3878
701c
600c
8006
ENDCHAR
STARTCHAR C147
ENCODING 147
SWIDTH 672 0
DWIDTH 28 0
BBX 21 36 0 -6
BITMAP
007000
007000
007000
007000
007000
007000
00f000
00f800
00f800
01fc00
01fc00
03fc00
03fe00
077600
077700
0e7300
0c7380
1c7180
1871c0
3870c0
3070e0
707070
707070
e07030
e07038
e07038
e07038
fffff8
fffff8
fffff8
007000
007000
007000
007000
007000
007000
ENDCHAR
STARTCHAR C149
ENCODING 149
SWIDTH 672 0
DWIDTH 28 0
BBX 21 36 0 -6
BITMAP
fffff8
fffff8
fffff8
e00038
e00038
e00038
e00038
e00038
e00038
e00038
e00038
e00038
e00038
e00038
e00038
e00038
e00038
e00038
e00038
e00038
e00038
e00038
e00038
e00038
e00038
e00038
e00038
e00038
e00038
e00038
e00038
e00038
e00038
fffff8
fffff8
fffff8
ENDCHAR
STARTCHAR C151
ENCODING 151
SWIDTH 672 0
DWIDTH 28 0
BBX 21 36 0 -6
BITMAP
fffff8
fffff8
fffff8
e07038
e07038
e07038
e07038
e07038
e07038
e07038
e07038
e07038
e00038
e00038
e00038
e00038
e00038
e00038
e00038
e00038
e00038
e00038
e00038
e00038
e00038
e00038
e00038
e00038
e00038
e00038
e00038
e00038
e00038
fffff8
fffff8
fffff8
ENDCHAR
STARTCHAR C152
ENCODING 152
SWIDTH 672 0
DWIDTH 28 0
BBX 21 36 0 -6
BITMAP
fffff8
fffff8
fffff8
e00038
e00038
e00038
e07038
e07038
e07038
e07038
e07038
e07038
e00038
e00038
e00038
fffff8
fffff8
fffff8
e00038
e00038
e00038
e07038
e07038
e07038
e07038
e07038
e07038
e00038
e00038
e00038
e00038
e00038
e00038
fffff8
fffff8
fffff8
ENDCHAR
STARTCHAR C154
ENCODING 154
SWIDTH 672 0
DWIDTH 28 0
BBX 18 6 3 21
BITMAP
fc0fc0
fc0fc0
fc0fc0
fc0fc0
fc0fc0
fc0fc0
ENDCHAR
STARTCHAR C157
ENCODING 157
SWIDTH 672 0
DWIDTH 28 0
BBX 21 36 0 -6
BITMAP
007000
007000
007000
007000
007000
007000
fffff8
fffff8
fffff8
e07038
e07038
e07038
e07030
607030
707070
307060
3070e0
1870c0
1871c0
0c7180
0c7380
067300
067300
077600
03f600
03fc00
01fc00
01f800
00f800
00f000
007000
007000
007000
007000
007000
007000
ENDCHAR
STARTCHAR C158
ENCODING 158
SWIDTH 672 0
DWIDTH 28 0
BBX 18 21 3 -3
BITMAP
ffffc0
ffffc0
ffffc0
000000
000000
000000
000000
000000
000000
03f000
03f000
03f000
078000
070000
0f0000
1e0000
3e0000
7c0000
780000
e00000
800000
ENDCHAR
STARTCHAR C161
ENCODING 161
SWIDTH 672 0
DWIDTH 28 0
BBX 21 36 0 -6
BITMAP
fffff8
fffff8
fffff8
e00038
e00038
e00038
e00038
e00038
e00038
fffff8
fffff8
fffff8
f00078
f000f8
f800f8
f801f8
fc01f8
ec03b8
e60338
e20638
e30638
e10c38
e18838
e09838
e0f038
e07038
e06038
e00038
e00038
e00038
e00038
e00038
e00038
fffff8
fffff8
fffff8
ENDCHAR
STARTCHAR C162
ENCODING 162
SWIDTH 672 0
DWIDTH 28 0
BBX 21 36 0 -6
BITMAP
fffff8
fffff8
fffff8
e00038
e00038
e00038
e00038
e00038
e00038
e01038
e02038
e0c038
e1c038
e38038
e78038
effff8
fffff8
fffff8
e78038
e38038
e1c038
e0c038
e06038
e00038
e00038
e00038
e00038
e00038
e00038
e00038
e00038
e00038
e00038
fffff8
fffff8
fffff8
ENDCHAR
STARTCHAR C163
ENCODING 163
SWIDTH 672 0
DWIDTH 28 0
BBX 21 36 0 -6
BITMAP
fffff8
fffff8
fffff8
e00038
e00038
e00038
e00038
e00038
e00038
e00038
e02038
e03838
e01c38
e01e38
e00fb8
fffff8
fffff8
fffff8
e00fb8
e01f38
e01c38
e03838
e03038
e04038
e00038
e00038
e00038
e00038
e00038
e00038
e00038
e00038
e00038
fffff8
fffff8
fffff8
ENDCHAR
STARTCHAR C166
ENCODING 166
SWIDTH 672 0
DWIDTH 28 0
BBX 21 27 0 -3
BITMAP
03fe00
1fffc0
3fffe0
7e03f0
700070
e00078
e07038
e1fc38
e7ff38
ef0fb8
fc03f8
fc01f8
f800f8
f800f8
f800f8
f801f8
fc01f8
ff07f8
efffb8
e7fe38
e1fc38
e00038
e00038
e00038
e00038
e00038
e00038
ENDCHAR
STARTCHAR C167
ENCODING 167
SWIDTH 672 0
DWIDTH 28 0
BBX 21 27 0 -3
BITMAP
c00000
c00000
e00000
600000
700000
380000
180000
1c0000
0e0000
070000
038000
01e000
1ffff8
1ffff8
1ffff8
00f000
003800
001c00
000e00
000700
000380
0001c0
0000e0
0000f0
000070
000030
000018
ENDCHAR
STARTCHAR C168
ENCODING 168
SWIDTH 672 0
DWIDTH 28 0
BBX 21 21 0 3
BITMAP
006000
007000
00f800
019c00
038e00
070700
0e0380
1c01c0
3800e0
700070
e00038
e00038
7000e0
3801c0
0c0380
060700
030e00
018c00
01f800
00f000
007000
ENDCHAR
STARTCHAR C174
ENCODING 174
SWIDTH 672 0
DWIDTH 28 0
BBX 20 20 1 3
BITMAP
006000
01c000
038000
078000
0f0000
1ffff0
3ffff0
7ffff0
f00000
c00000
c00000
fffff0
7ffff0
3ffff0
1e0000
070000
038000
01c000
00e000
002000
ENDCHAR
STARTCHAR C175
ENCODING 175
SWIDTH 672 0
DWIDTH 28 0
BBX 20 21 0 3
BITMAP
008000
006000
007000
003c00
001e00
000f00
ffff80
ffffc0
ffffe0
0001f0
000030
000070
ffffe0
ffffe0
ffffc0
000f00
001e00
001c00
003800
007000
00c000
ENDCHAR
STARTCHAR C224
ENCODING 224
SWIDTH 672 0
DWIDTH 28 0
BBX 21 18 0 3
BITMAP
078008
1fe010
3ff030
7c7860
601ce0
e00ec0
c00780
c00780
c00700
c00700
c00700
c00700
e00f80
600f80
703dc0
7ff9e0
3ff0f0
0fe070
ENDCHAR
STARTCHAR C226
ENCODING 226
SWIDTH 672 0
DWIDTH 28 0
BBX 10 21 6 0
BITMAP
e000
fc00
fc00
3e00
1e00
0e00
0e00
1e00
1c00
3c00
3800
3800
7800
7800
7800
7800
3c00
3e00
1f80
1fc0
07c0
ENDCHAR
STARTCHAR C227
ENCODING 227
SWIDTH 672 0
DWIDTH 28 0
BBX 15 26 3 3
BITMAP
783c
fc7c
fc7e
fc7c
783c
0000
0000
0000
0000
0000
0000
0380
1ff0
3ff8
783c
f01c
e01e
e00e
e00e
e00e
e00e
e01c
703c
7ff8
3ff0
0fe0
ENDCHAR
STARTCHAR C228
ENCODING 228
SWIDTH 672 0
DWIDTH 28 0
BBX 21 29 0 0
BITMAP
0f0780
1f8f80
1f8fc0
1f8f80
0f0780
000000
000000
000000
03fe00
1fffc0
3fffe0
7c03f0
f00070
e00070
e00038
e00038
e00038
e00038
e00038
e00038
e00038
e00038
e00038
e00078
700070
7800f0
3fffe0
1fffc0
0fff00
ENDCHAR
STARTCHAR C229
ENCODING 229
SWIDTH 672 0
DWIDTH 28 0
BBX 21 20 0 4
BITMAP
c00008
e00018
e00038
e00030
f00070
7c0070
7f00e0
3b80e0
78c1c8
fc61d0
dc33f0
ce1b70
8e0fe0
070fc0
070f00
038e00
038e00
019c00
00f800
007000
ENDCHAR
STARTCHAR C230
ENCODING 230
SWIDTH 672 0
DWIDTH 28 0
BBX 21 24 0 0
BITMAP
007000
007000
007000
007000
007000
007000
007000
007000
007000
007000
007000
007000
007000
007000
007000
007000
007000
007000
007000
007000
007000
fffff8
fffff8
fffff8
ENDCHAR
STARTCHAR C231
ENCODING 231
SWIDTH 672 0
DWIDTH 28 0
BBX 21 24 0 0
BITMAP
fffff8
fffff8
fffff8
007000
007000
007000
007000
007000
007000
007000
007000
007000
007000
007000
007000
007000
007000
007000
007000
007000
007000
007000
007000
007000
ENDCHAR
STARTCHAR C232
ENCODING 232
SWIDTH 672 0
DWIDTH 28 0
BBX 21 36 0 -6
BITMAP
007000
007000
007000
007000
007000
007000
03ff00
1fffc0
3fffe0
7c71f0
707070
f07070
e07078
e07038
e07038
e07038
e07038
e07038
e07038
e07038
e07038
e07070
f07070
7870f0
7fffe0
3fffc0
0fff00
007000
007000
007000
007000
007000
007000
007000
007000
007000
ENDCHAR
STARTCHAR C233
ENCODING 233
SWIDTH 672 0
DWIDTH 28 0
BBX 21 21 0 3
BITMAP
03fe00
1fffc0
3fffe0
7c01f0
f00070
e00070
e00038
e00038
e00038
fffff8
fffff8
fffff8
e00038
e00038
e00038
e00038
600070
7000f0
3fffe0
1fffc0
0fff80
ENDCHAR
STARTCHAR C234
ENCODING 234
SWIDTH 672 0
DWIDTH 28 0
BBX 21 20 0 3
BITMAP
006000
00f000
01d800
038c00
078c00
1f8600
3b8600
77c708
e6e318
ce73b0
9c39f0
1c0fc0
3807c0
3803e0
7000f0
700070
e00070
e00038
c00038
800008
ENDCHAR
STARTCHAR C235
ENCODING 235
SWIDTH 672 0
DWIDTH 28 0
BBX 21 27 0 -3
BITMAP
000008
000030
000070
0000e0
0000e0
0001c0
000380
000780
000700
000e00
001c00
007800
1ffff8
1ffff8
1ffff8
00f000
01c000
038000
070000
0e0000
1c0000
380000
380000
700000
600000
e00000
800000
ENDCHAR
STARTCHAR C236
ENCODING 236
SWIDTH 672 0
DWIDTH 28 0
BBX 21 24 0 0
BITMAP
fffff8
fffff8
fffff8
e00038
e00038
e00038
e00038
600070
700070
300060
3800e0
1800c0
180180
0c0180
0c0300
060300
060600
030600
030c00
018c00
009800
00f800
007000
006000
ENDCHAR
STARTCHAR C237
ENCODING 237
SWIDTH 672 0
DWIDTH 28 0
BBX 24 26 0 0
BITMAP
c00000
700000
7ffc00
3fffc0
1fffe0
7f01f0
f40070
f20070
e10078
e18038
e0c038
e06038
e03038
e01838
e00c38
e00638
e00338
e003b8
7001f8
7800f8
3ffff8
1ffffc
0ffffc
00003e
000006
000001
ENDCHAR
STARTCHAR C238
ENCODING 238
SWIDTH 672 0
DWIDTH 28 0
BBX 17 21 0 0
BITMAP
03fc00
1fff00
3fff80
780000
700000
e00000
e00000
700000
700000
3c0000
1ff000
1f0000
780000
700000
e00000
e00000
700000
780000
3e0380
1fff80
07fe00
ENDCHAR
STARTCHAR C239
ENCODING 239
SWIDTH 672 0
DWIDTH 28 0
BBX 18 24 0 0
BITMAP
03f000
1ffe00
3fff00
7c1f80
700380
e003c0
e003c0
e001c0
e001c0
e001c0
e001c0
e001c0
e001c0
e001c0
e001c0
e001c0
e001c0
e001c0
e001c0
e001c0
e001c0
e001c0
e001c0
e001c0
ENDCHAR
STARTCHAR C240
ENCODING 240
SWIDTH 672 0
DWIDTH 28 0
BBX 21 24 0 -3
BITMAP
fffff8
fffff8
fffff8
000000
000000
000000
000000
000000
000000
000000
fffff8
fffff8
fffff8
000000
000000
000000
000000
000000
000000
000000
000000
fffff8
fffff8
fffff8
ENDCHAR
STARTCHAR C242
ENCODING 242
SWIDTH 672 0
DWIDTH 28 0
BBX 15 32 3 -6
BITMAP
e000
7000
7800
3c00
1e00
0f00
0780
03c0
01e0
00f0
0038
001c
000e
000e
0038
0070
00e0
01c0
0380
0700
0e00
1c00
3800
7000
e000
8000
0000
0000
0000
fffe
fffe
fffe
ENDCHAR
STARTCHAR C243
ENCODING 243
SWIDTH 672 0
DWIDTH 28 0
BBX 15 33 3 -6
BITMAP
0002
000c
001c
0038
0070
00f0
01e0
03c0
0780
0e00
1c00
3800
7000
e000
e000
7000
3c00
1e00
0f00
0780
03c0
01e0
00f0
0078
003c
000c
0006
0000
0000
0000
fffe
fffe
fffe
ENDCHAR
STARTCHAR C244
ENCODING 244
SWIDTH 672 0
DWIDTH 28 0
BBX 21 24 0 0
BITMAP
fffff8
fffff8
fffff8
007000
007000
007000
00f800
03fe00
07ff00
0f7780
1c7380
1c71c0
1c71c0
1c7180
0e7380
0fff00
07fe00
01f800
007000
007000
007000
007000
007000
007000
ENDCHAR
STARTCHAR C245
ENCODING 245
SWIDTH 672 0
DWIDTH 28 0
BBX 21 24 0 0
BITMAP
007000
007000
007000
007000
007000
007000
00f800
03fe00
07ff00
0f7780
1c7380
1c71c0
1c71c0
1c7180
0e7380
0fff00
07fe00
01f800
007000
007000
007000
fffff8
fffff8
fffff8
ENDCHAR
STARTCHAR C246
ENCODING 246
SWIDTH 672 0
DWIDTH 28 0
BBX 18 21 3 3
BITMAP
03f000
03f000
03f000
000000
000000
000000
000000
000000
000000
ffffc0
ffffc0
ffffc0
000000
000000
000000
000000
000000
000000
03f000
03f000
03f000
ENDCHAR
STARTCHAR C247
ENCODING 247
SWIDTH 672 0
DWIDTH 28 0
BBX 21 18 0 3
BITMAP
600000
600020
600030
600030
e00030
e00038
e02038
e06038
e07038
e07038
e07038
e07078
f0f870
f1f8f0
7ffff0
3f9fe0
1f8fc0
0f0700
ENDCHAR
STARTCHAR C248
ENCODING 248
SWIDTH 672 0
DWIDTH 28 0
BBX 15 15 3 3
BITMAP
0380
1ff0
3ff8
783c
e01c
e00e
e00e
c00e
e00e
e00e
e01c
703c
7ef8
3ff0
0fe0
ENDCHAR
STARTCHAR C249
ENCODING 249
SWIDTH 672 0
DWIDTH 28 0
BBX 21 21 0 3
BITMAP
03fe00
1fffc0
3fffe0
7e00f0
f00070
e00070
e00038
e00038
e00038
e00038
e00038
e00038
e00038
e00038
e00038
e00038
600070
7000f0
3fffe0
1fffc0
0fff80
ENDCHAR
STARTCHAR C250
ENCODING 250
SWIDTH 672 0
DWIDTH 28 0
BBX 21 21 0 0
BITMAP
c00008
c00018
e00038
e00030
700070
700060
3800e0
3800e0
1c01c0
1c01c0
0c0380
0e0380
060700
070700
030600
038c00
018c00
019800
00f800
007000
006000
ENDCHAR
STARTCHAR C251
ENCODING 251
SWIDTH 672 0
DWIDTH 28 0
BBX 15 27 6 -6
BITMAP
0780
1ff0
3ff8
703c
f01c
e00c
e00e
e00e
e00e
e00e
e01c
e03c
fff8
fff0
ffe0
e000
e000
e000
e000
e000
e000
e000
e000
e000
e000
e000
e000
ENDCHAR
STARTCHAR C252
ENCODING 252
SWIDTH 672 0
DWIDTH 28 0
BBX 18 24 0 0
BITMAP
e001c0
e001c0
e001c0
e001c0
e001c0
e001c0
e001c0
e001c0
e001c0
e001c0
e001c0
e001c0
e001c0
e001c0
e001c0
e001c0
e001c0
e003c0
f003c0
f00780
7c0f80
3fff00
1ffe00
0ff800
ENDCHAR
STARTCHAR C253
ENCODING 253
SWIDTH 672 0
DWIDTH 28 0
BBX 21 3 0 24
BITMAP
fffff8
fffff8
fffff8
ENDCHAR
STARTCHAR C254
ENCODING 254
SWIDTH 672 0
DWIDTH 28 0
BBX 3 33 9 -6
BITMAP
e0
e0
e0
e0
e0
e0
e0
e0
e0
e0
e0
e0
e0
e0
e0
e0
e0
e0
e0
e0
e0
e0
e0
e0
e0
e0
e0
e0
e0
e0
e0
e0
e0
ENDCHAR
ENDFONT
